<?xml version="1.0" encoding="UTF-8" standalone="no"?>
<!-- Created with Inkscape (http://www.inkscape.org/) -->

<svg
   xmlns:dc="http://purl.org/dc/elements/1.1/"
   xmlns:cc="http://creativecommons.org/ns#"
   xmlns:rdf="http://www.w3.org/1999/02/22-rdf-syntax-ns#"
   xmlns:svg="http://www.w3.org/2000/svg"
   xmlns="http://www.w3.org/2000/svg"
   xmlns:xlink="http://www.w3.org/1999/xlink"
   version="1.1"
   width="256"
   height="256"
   id="svg2">
  <title id="title6348">TurboSphere</title>
  <defs  id="defs4">
    <!-- Turbine intake background -->
    <linearGradient
       id="linearGradient6340">

      <!-- Center of the turbine's circular background gradient -->
      <stop
         id="stop6342"
         style="stop-color:#FFFFFF;stop-opacity:0.25892857"
         offset="0" />

      <!-- Outer edge of the turbine's circular background gradient -->
      <stop
         id="stop6344"
         style="stop-color:#000000;stop-opacity:1"
         offset="1" />
    </linearGradient>

    <!-- Inner fill of the turbine blades (near the center)
          Ordered from centermost to outermost.
    -->
    <linearGradient
       id="linearGradient6182">
      <stop
         id="stop6184"
         style="stop-color:#000000;stop-opacity:1"
         offset="0" />
      <stop
         id="stop6320"
         style="stop-color:#000000;stop-opacity:1"
         offset="0.5" />
      <stop
         id="stop6186"
         style="stop-color:#000000;stop-opacity:0"
         offset="1" />
    </linearGradient>

    <!-- Turbine intake face shading
          Somehow seperately controls the outer edge of the
          intake lip, and the spindle cap. I have no idea how
          Inkscape made that happen.
    -->
    <linearGradient
       id="linearGradient4631">
      <!-- The inner edge -->
      <stop
         id="stop4633"
         style="stop-color:#FFFFFF;stop-opacity:1"
         offset="0" />
      <!-- The outer edge -->
      <stop
         id="stop4635"
         style="stop-color:#505050;stop-opacity:1"
         offset="1" />
    </linearGradient>

    <!-- What is this? -->
    <!-- Changes seemingly not visible. -->
    <marker
       refX="0"
       refY="0"
       orient="auto"
       id="Arrow1Lstart"
       style="overflow:visible">
      <path
         d="M 0,0 5,-5 -12.5,0 5,5 0,0 z"
         transform="matrix(0.8,0,0,0.8,10,0)"
         id="path3811"
         style="fill-rule:evenodd;stroke:#000000;stroke-width:1pt" />
    </marker>

    <!-- Turbo spirals fill -->
    <linearGradient
       id="linearGradient3759">
      <stop
         id="stop3771"
         style="stop-color:#505050;stop-opacity:1"
         offset="0" />
      <stop
         id="stop3763"
         style="stop-color:#ffffff;stop-opacity:1"
         offset="1" />
    </linearGradient>

    <!-- What is this? -->
    <radialGradient
       cx="66.670067"
       cy="189.32993"
       r="73.736061"
       fx="66.670067"
       fy="189.32993"
       id="radialGradient3773"
       xlink:href="#linearGradient3759"
       gradientUnits="userSpaceOnUse"
       spreadMethod="pad" />

    <!-- What is this? -->
    <linearGradient
       x1="170.66101"
       y1="228.73766"
       x2="145.53934"
       y2="192.48523"
       id="linearGradient4640"
       xlink:href="#linearGradient3759"
       gradientUnits="userSpaceOnUse"
       gradientTransform="matrix(1.8601546,0,0,1.8602156,-170.55644,567.67416)"
       spreadMethod="pad" />

    <!-- What is this? -->
    <linearGradient
       x1="60.456715"
       y1="1015.5117"
       x2="59.28727"
       y2="904.95422"
       id="linearGradient4655"
       xlink:href="#linearGradient3759"
       gradientUnits="userSpaceOnUse"
       gradientTransform="matrix(0.74603116,0,0,0.89116726,24.20637,107.56611)" />

    <!-- What is this? -->
    <linearGradient
       x1="61.608047"
       y1="919.64783"
       x2="58.711605"
       y2="1030.4497"
       id="linearGradient4655-8"
       xlink:href="#linearGradient3759-2"
       gradientUnits="userSpaceOnUse" />

    <!-- What is this? -->
    <linearGradient
       id="linearGradient3759-2">
      <stop
         id="stop3771-7"
         style="stop-color:#505050;stop-opacity:1"
         offset="0" />
      <stop
         id="stop3763-7"
         style="stop-color:#ffffff;stop-opacity:1"
         offset="1" />
    </linearGradient>

    <!-- What is this? -->
    <linearGradient
       x1="59.282837"
       y1="1051.1975"
       x2="59.318958"
       y2="927.80676"
       id="linearGradient4672"
       xlink:href="#linearGradient3759-2"
       gradientUnits="userSpaceOnUse"
       gradientTransform="translate(-2.0000025,-3.6829118e-5)" />
    <linearGradient
       x1="157.60069"
       y1="196.74097"
       x2="177.8636"
       y2="241.13329"
       id="linearGradient4693"
       xlink:href="#linearGradient3759"
       gradientUnits="userSpaceOnUse"
       gradientTransform="matrix(-1.8601546,0,0,-1.8602156,426.55642,1281.0501)"
       spreadMethod="pad" />
    <linearGradient
       x1="59.282837"
       y1="1051.1975"
       x2="59.318958"
       y2="927.80676"
       id="linearGradient4697"
       xlink:href="#linearGradient3759-2"
       gradientUnits="userSpaceOnUse"
       gradientTransform="translate(154,-128.00005)" />
    <linearGradient
       x1="60.456715"
       y1="1015.5117"
       x2="59.28727"
       y2="904.95422"
       id="linearGradient4701"
       xlink:href="#linearGradient3759"
       gradientUnits="userSpaceOnUse"
       gradientTransform="matrix(0.74603116,0,0,0.89116726,154.20637,-20.434008)" />
    <radialGradient
       cx="66.670067"
       cy="189.32993"
       r="73.736061"
       fx="66.670067"
       fy="189.32993"
       id="radialGradient4705"
       xlink:href="#linearGradient4631"
       gradientUnits="userSpaceOnUse"
       spreadMethod="pad" />
    <radialGradient
       cx="129.36655"
       cy="127.24081"
       r="20.650059"
       fx="129.36655"
       fy="127.24081"
       id="radialGradient6210"
       xlink:href="#linearGradient4631"
       gradientUnits="userSpaceOnUse" />
    <linearGradient
       x1="-116.5162"
       y1="285.92068"
       x2="-155.81525"
       y2="280.67175"
       id="linearGradient6246"
       xlink:href="#linearGradient6182"
       gradientUnits="userSpaceOnUse" />
    <linearGradient
       x1="-116.5162"
       y1="285.92068"
       x2="-155.81525"
       y2="280.67175"
       id="linearGradient6250"
       xlink:href="#linearGradient6182"
       gradientUnits="userSpaceOnUse" />
    <linearGradient
       x1="-116.5162"
       y1="285.92068"
       x2="-155.81525"
       y2="280.67175"
       id="linearGradient6256"
       xlink:href="#linearGradient3759-2"
       gradientUnits="userSpaceOnUse" />
    <linearGradient
       x1="-116.5162"
       y1="285.92068"
       x2="-155.81525"
       y2="280.67175"
       id="linearGradient6258"
       xlink:href="#linearGradient3759-2"
       gradientUnits="userSpaceOnUse" />
    <linearGradient
       x1="-116.5162"
       y1="285.92068"
       x2="-155.81525"
       y2="280.67175"
       id="linearGradient6268"
       xlink:href="#linearGradient6182"
       gradientUnits="userSpaceOnUse" />
    <linearGradient
       x1="-116.5162"
       y1="285.92068"
       x2="-155.81525"
       y2="280.67175"
       id="linearGradient6270"
       xlink:href="#linearGradient6182"
       gradientUnits="userSpaceOnUse" />
    <linearGradient
       x1="-116.5162"
       y1="285.92068"
       x2="-155.81525"
       y2="280.67175"
       id="linearGradient6276"
       xlink:href="#linearGradient6182"
       gradientUnits="userSpaceOnUse" />
    <linearGradient
       x1="-116.5162"
       y1="285.92068"
       x2="-155.81525"
       y2="280.67175"
       id="linearGradient6278"
       xlink:href="#linearGradient6182"
       gradientUnits="userSpaceOnUse" />
    <linearGradient
       x1="-116.5162"
       y1="285.92068"
       x2="-155.81525"
       y2="280.67175"
       id="linearGradient6292"
       xlink:href="#linearGradient6182"
       gradientUnits="userSpaceOnUse" />
    <linearGradient
       x1="-116.5162"
       y1="285.92068"
       x2="-155.81525"
       y2="280.67175"
       id="linearGradient6294"
       xlink:href="#linearGradient6182"
       gradientUnits="userSpaceOnUse" />
    <linearGradient
       x1="-116.5162"
       y1="285.92068"
       x2="-155.81525"
       y2="280.67175"
       id="linearGradient6296"
       xlink:href="#linearGradient6182"
       gradientUnits="userSpaceOnUse" />
    <linearGradient
       x1="-116.5162"
       y1="285.92068"
       x2="-155.81525"
       y2="280.67175"
       id="linearGradient6298"
       xlink:href="#linearGradient6182"
       gradientUnits="userSpaceOnUse" />
    <linearGradient
       x1="-116.5162"
       y1="285.92068"
       x2="-155.81525"
       y2="280.67175"
       id="linearGradient6300"
       xlink:href="#linearGradient6182"
       gradientUnits="userSpaceOnUse" />
    <linearGradient
       x1="-116.5162"
       y1="285.92068"
       x2="-155.81525"
       y2="280.67175"
       id="linearGradient6302"
       xlink:href="#linearGradient6182"
       gradientUnits="userSpaceOnUse" />
    <linearGradient
       x1="-116.5162"
       y1="285.92068"
       x2="-155.81525"
       y2="280.67175"
       id="linearGradient6312"
       xlink:href="#linearGradient6182"
       gradientUnits="userSpaceOnUse" />
    <linearGradient
       x1="-116.5162"
       y1="285.92068"
       x2="-155.81525"
       y2="280.67175"
       id="linearGradient6314"
       xlink:href="#linearGradient6182"
       gradientUnits="userSpaceOnUse" />
    <radialGradient
       cx="126.93713"
       cy="128.45552"
       r="56.376633"
       fx="126.93713"
       fy="128.45552"
       id="radialGradient6346"
       xlink:href="#linearGradient6340"
       gradientUnits="userSpaceOnUse" />
  </defs>
  <metadata
     id="metadata7">
    <rdf:RDF>
      <cc:Work
         rdf:about="">
        <dc:format>image/svg+xml</dc:format>
        <dc:type
           rdf:resource="http://purl.org/dc/dcmitype/StillImage" />
        <dc:title>TurboSphere</dc:title>
      </cc:Work>
    </rdf:RDF>
  </metadata>
  <g
     transform="translate(0,-796.36218)"
     id="layer1">
    <path
       d="m 185.24318,128.45552 a 55.876633,55.876633 0 1 1 -111.753266,0 55.876633,55.876633 0 1 1 111.753266,0 z"
       transform="matrix(0.01936622,0,0,0.01936622,124.80933,922.04614)"
       id="path6222"
       style="fill:#42473d;fill-opacity:1;fill-rule:nonzero;stroke:#000000;stroke-width:53.20093918;stroke-linejoin:round;stroke-miterlimit:4;stroke-opacity:1;stroke-dasharray:none;stroke-dashoffset:0" />
    <path
       d="m 139.90613,189.32993 a 73.236061,73.236061 0 1 1 -146.4721243,0 73.236061,73.236061 0 1 1 146.4721243,0 z"
       transform="matrix(0.86796173,0,0,0.86796174,70.132933,760.03105)"
       id="path2987"
       style="fill:url(#radialGradient3773);fill-opacity:1;fill-rule:evenodd;stroke:#000000;stroke-width:1.15212452;stroke-linecap:butt;stroke-linejoin:round;stroke-miterlimit:4;stroke-opacity:1;stroke-dasharray:none;stroke-dashoffset:0;marker-start:none" />
    <path
       d="m 187.52331,924.83554 c 0.27563,35.72374 -16.78076,70.9717 -44.81361,93.07806 -20.74222,16.6762 -47.228483,25.99 -73.842384,25.9752 -0.131289,-39.6843 -0.262599,-79.36886 -0.393906,-119.05326 39.68329,0 79.36661,0 119.0499,0 z"
       id="path4619"
       style="fill:url(#linearGradient4640);fill-opacity:1;fill-rule:nonzero;stroke:#000000;stroke-width:0.9468205;stroke-linejoin:round;stroke-miterlimit:4;stroke-opacity:1;stroke-dasharray:none;stroke-dashoffset:0" />
    <rect
       width="11.253331"
       height="113.25333"
       ry="0"
       x="57.373333"
       y="931.73553"
       id="rect4642"
       style="fill:url(#linearGradient4655);fill-opacity:1;fill-rule:nonzero;stroke:#000000;stroke-width:0.74666876;stroke-linejoin:round;stroke-miterlimit:4;stroke-opacity:1;stroke-dasharray:none;stroke-dashoffset:0" />
    <path
       d="m 68.476701,923.88877 c -0.27563,-35.72374 16.78076,-70.97171 44.813609,-93.07807 20.74222,-16.6762 47.22849,-25.99 73.84239,-25.9752 0.13129,39.6843 0.2626,79.36886 0.3939,119.05327 -39.68329,0 -79.36661,0 -119.049899,0 z"
       id="path4691"
       style="fill:url(#linearGradient4693);fill-opacity:1;fill-rule:nonzero;stroke:#000000;stroke-width:0.9468205;stroke-linejoin:round;stroke-miterlimit:4;stroke-opacity:1;stroke-dasharray:none;stroke-dashoffset:0" />
    <rect
       width="11.253331"
       height="113.25333"
       ry="0"
       x="187.37334"
       y="803.73553"
       id="rect4699"
       style="fill:url(#linearGradient4701);fill-opacity:1;fill-rule:nonzero;stroke:#000000;stroke-width:0.74666876;stroke-linejoin:round;stroke-miterlimit:4;stroke-opacity:1;stroke-dasharray:none;stroke-dashoffset:0" />
    <path
       d="m 139.90613,189.32993 a 73.236061,73.236061 0 1 1 -146.4721243,0 73.236061,73.236061 0 1 1 146.4721243,0 z"
       transform="matrix(0.86796173,0,0,0.86796174,70.132933,760.03105)"
       id="path4621"
       style="fill:url(#radialGradient4705);fill-opacity:1;fill-rule:evenodd;stroke:#000000;stroke-width:1.15212452;stroke-linecap:butt;stroke-linejoin:round;stroke-miterlimit:4;stroke-opacity:1;stroke-dasharray:none;stroke-dashoffset:0;marker-start:none" />
    <rect
       width="15.084265"
       height="127.08427"
       ry="0"
       x="42.457867"
       y="924.82007"
       id="rect4642-1"
       style="fill:url(#linearGradient4672);fill-opacity:1;fill-rule:nonzero;stroke:#000000;stroke-width:0.91573513;stroke-linejoin:round;stroke-miterlimit:4;stroke-opacity:1;stroke-dasharray:none;stroke-dashoffset:0" />
    <rect
       width="15.084265"
       height="127.08427"
       ry="0"
       x="198.45787"
       y="796.82007"
       id="rect4695"
       style="fill:url(#linearGradient4697);fill-opacity:1;fill-rule:nonzero;stroke:#000000;stroke-width:0.91573513;stroke-linejoin:round;stroke-miterlimit:4;stroke-opacity:1;stroke-dasharray:none;stroke-dashoffset:0" />
    <path
       d="m 185.24318,128.45552 a 55.876633,55.876633 0 1 1 -111.753266,0 55.876633,55.876633 0 1 1 111.753266,0 z"
       transform="matrix(0.99331935,0,0,0.99331935,-0.50229367,796.76482)"
       id="path4707"
       style="fill:#2c2027;fill-opacity:1;fill-rule:nonzero;stroke:#000000;stroke-width:0.99967849;stroke-linejoin:round;stroke-miterlimit:4;stroke-opacity:1;stroke-dasharray:23.99228405, 0.9996785;stroke-dashoffset:0" />
    <path
       d="m -136.04745,129.06287 c 53.129699,71.07775 -19.01914,154.15711 -89.19814,171.28907 -42.7992,10.44806 -86.32835,6.12309 -127.35987,-9.41477"
       transform="matrix(0.17800163,0.01299943,-0.0180236,0.24679774,154.102,893.51718)"
       id="path6216"
       style="fill:url(#linearGradient6246);fill-opacity:1;stroke:#000000;stroke-width:4.90260029;stroke-linecap:butt;stroke-linejoin:miter;stroke-miterlimit:4;stroke-opacity:1;stroke-dasharray:none" />
    <path
       d="m -136.04745,129.06287 c 53.129699,71.07775 -19.01914,154.15711 -89.19814,171.28907 -42.7992,10.44806 -86.32835,6.12309 -127.35987,-9.41477"
       transform="matrix(-0.17793189,-0.01392144,0.01930194,-0.24670104,100.58463,954.44444)"
       id="path6248"
       style="fill:url(#linearGradient6250);fill-opacity:1;stroke:#000000;stroke-width:4.90260077;stroke-linecap:butt;stroke-linejoin:miter;stroke-miterlimit:4;stroke-opacity:1;stroke-dasharray:none" />
    <path
       d="m -136.04745,129.06287 c 53.129699,71.07775 -19.01914,154.15711 -89.19814,171.28907 -42.7992,10.44806 -86.32835,6.12309 -127.35987,-9.41477"
       transform="matrix(0.17800163,0.01299943,-0.0180236,0.24679774,154.102,893.51718)"
       id="path6260"
       style="fill:url(#linearGradient6314);fill-opacity:1;stroke:#000000;stroke-width:4.90260029;stroke-linecap:butt;stroke-linejoin:miter;stroke-miterlimit:4;stroke-opacity:1;stroke-dasharray:none" />
    <path
       d="m -136.04745,129.06287 c 53.129699,71.07775 -19.01914,154.15711 -89.19814,171.28907 -42.7992,10.44806 -86.32835,6.12309 -127.35987,-9.41477"
       transform="matrix(-0.17793189,-0.01392144,0.01930194,-0.24670104,100.58463,954.44444)"
       id="path6262"
       style="fill:url(#linearGradient6312);fill-opacity:1;stroke:#000000;stroke-width:4.90260077;stroke-linecap:butt;stroke-linejoin:miter;stroke-miterlimit:4;stroke-opacity:1;stroke-dasharray:none" />
    <path
       d="m -136.04745,129.06287 c 53.129699,71.07775 -19.01914,154.15711 -89.19814,171.28907 -42.7992,10.44806 -86.32835,6.12309 -127.35987,-9.41477"
       transform="matrix(0.10025864,-0.14765419,0.20472128,0.13900778,114.36114,885.81861)"
       id="path6264"
       style="fill:url(#linearGradient6268);fill-opacity:1;stroke:#000000;stroke-width:4.90260077;stroke-linecap:butt;stroke-linejoin:miter;stroke-miterlimit:4;stroke-opacity:1;stroke-dasharray:none" />
    <path
       d="m -136.04745,129.06287 c 53.129699,71.07775 -19.01914,154.15711 -89.19814,171.28907 -42.7992,10.44806 -86.32835,6.12309 -127.35987,-9.41477"
       transform="matrix(-0.10102226,0.14713283,-0.20399841,-0.1400665,140.36694,962.62969)"
       id="path6266"
       style="fill:url(#linearGradient6270);fill-opacity:1;stroke:#000000;stroke-width:4.90260029;stroke-linecap:butt;stroke-linejoin:miter;stroke-miterlimit:4;stroke-opacity:1;stroke-dasharray:none" />
    <path
       d="m -136.04745,129.06287 c 53.129699,71.07775 -19.01914,154.15711 -89.19814,171.28907 -42.7992,10.44806 -86.32835,6.12309 -127.35987,-9.41477"
       transform="matrix(-0.07774298,-0.16065364,0.22274494,-0.10778997,87.846391,916.39208)"
       id="path6272"
       style="fill:url(#linearGradient6276);fill-opacity:1;stroke:#000000;stroke-width:4.90260029;stroke-linecap:butt;stroke-linejoin:miter;stroke-miterlimit:4;stroke-opacity:1;stroke-dasharray:none" />
    <path
       d="m -136.04745,129.06287 c 53.129699,71.07775 -19.01914,154.15711 -89.19814,171.28907 -42.7992,10.44806 -86.32835,6.12309 -127.35987,-9.41477"
       transform="matrix(0.07690964,0.16105424,-0.22330034,0.10663455,167.36962,932.27587)"
       id="path6274"
       style="fill:url(#linearGradient6278);fill-opacity:1;stroke:#000000;stroke-width:4.90260077;stroke-linecap:butt;stroke-linejoin:miter;stroke-miterlimit:4;stroke-opacity:1;stroke-dasharray:none" />
    <path
       d="m -136.04745,129.06287 c 53.129699,71.07775 -19.01914,154.15711 -89.19814,171.28907 -42.7992,10.44806 -86.32835,6.12309 -127.35987,-9.41477"
       transform="matrix(0.16065364,-0.07774298,0.10778997,0.22274493,135.26236,884.35123)"
       id="path6280"
       style="fill:url(#linearGradient6292);fill-opacity:1;stroke:#000000;stroke-width:4.90260029;stroke-linecap:butt;stroke-linejoin:miter;stroke-miterlimit:4;stroke-opacity:1;stroke-dasharray:none" />
    <path
       d="m -136.04745,129.06287 c 53.129699,71.07775 -19.01914,154.15711 -89.19814,171.28907 -42.7992,10.44806 -86.32835,6.12309 -127.35987,-9.41477"
       transform="matrix(-0.16105423,0.07690964,-0.10663455,-0.22330034,119.37854,963.87447)"
       id="path6282"
       style="fill:url(#linearGradient6294);fill-opacity:1;stroke:#000000;stroke-width:4.90260077;stroke-linecap:butt;stroke-linejoin:miter;stroke-miterlimit:4;stroke-opacity:1;stroke-dasharray:none" />
    <path
       d="m -136.04745,129.06287 c 53.129699,71.07775 -19.01914,154.15711 -89.19814,171.28907 -42.7992,10.44806 -86.32835,6.12309 -127.35987,-9.41477"
       transform="matrix(0.01299943,-0.17800163,0.24679774,0.0180236,96.996464,897.55452)"
       id="path6284"
       style="fill:url(#linearGradient6296);fill-opacity:1;stroke:#000000;stroke-width:4.90260029;stroke-linecap:butt;stroke-linejoin:miter;stroke-miterlimit:4;stroke-opacity:1;stroke-dasharray:none" />
    <path
       d="m -136.04745,129.06287 c 53.129699,71.07775 -19.01914,154.15711 -89.19814,171.28907 -42.7992,10.44806 -86.32835,6.12309 -127.35987,-9.41477"
       transform="matrix(-0.01392144,0.17793189,-0.24670105,-0.01930194,157.9237,951.07191)"
       id="path6286"
       style="fill:url(#linearGradient6298);fill-opacity:1;stroke:#000000;stroke-width:4.90260029;stroke-linecap:butt;stroke-linejoin:miter;stroke-miterlimit:4;stroke-opacity:1;stroke-dasharray:none" />
    <path
       d="m -136.04745,129.06287 c 53.129699,71.07775 -19.01914,154.15711 -89.19814,171.28907 -42.7992,10.44806 -86.32835,6.12309 -127.35987,-9.41477"
       transform="matrix(-0.14765419,-0.10025864,0.13900779,-0.20472128,89.320752,937.2893)"
       id="path6288"
       style="fill:url(#linearGradient6300);fill-opacity:1;stroke:#000000;stroke-width:4.90260077;stroke-linecap:butt;stroke-linejoin:miter;stroke-miterlimit:4;stroke-opacity:1;stroke-dasharray:none" />
    <path
       d="m -136.04745,129.06287 c 53.129699,71.07775 -19.01914,154.15711 -89.19814,171.28907 -42.7992,10.44806 -86.32835,6.12309 -127.35987,-9.41477"
       transform="matrix(0.14713283,0.10102226,-0.14006651,0.20399841,166.13181,911.28345)"
       id="path6290"
       style="fill:url(#linearGradient6302);fill-opacity:1;stroke:#000000;stroke-width:4.90260029;stroke-linecap:butt;stroke-linejoin:miter;stroke-miterlimit:4;stroke-opacity:1;stroke-dasharray:none" />
    <path
       d="m 182.81377,128.45552 a 55.876633,55.876633 0 1 1 -111.753269,0 55.876633,55.876633 0 1 1 111.753269,0 z"
       transform="matrix(0.99331935,0,0,0.99331935,1.9108891,796.76483)"
       id="path6330"
       style="fill:url(#radialGradient6346);fill-opacity:1;fill-rule:nonzero;stroke:#000000;stroke-width:1;stroke-linejoin:round;stroke-miterlimit:4;stroke-opacity:1;stroke-dasharray:none;stroke-dashoffset:0" />
    <path
       d="m 150.01661,127.24081 a 20.650059,20.650059 0 1 1 -41.30012,0 20.650059,20.650059 0 1 1 41.30012,0 z"
       transform="matrix(1.0169463,0,0,1.0169463,-4.5588301,795.96511)"
       id="path6202"
       style="fill:url(#radialGradient6210);fill-opacity:1;fill-rule:nonzero;stroke:#000000;stroke-width:0.49166805;stroke-linejoin:round;stroke-miterlimit:4;stroke-opacity:1;stroke-dasharray:none;stroke-dashoffset:0" />
  </g>
</svg>
